<svg xmlns="http://www.w3.org/2000/svg" version="1.1" xmlns:xlink="http://www.w3.org/1999/xlink" xmlns:svgjs="http://svgjs.dev/svgjs" width="1000" height="1685" viewBox="0 0 1000 1685"><g transform="matrix(1,0,0,1,0.13950743398538634,0.5176334346409703)"><svg viewBox="0 0 194 327" data-background-color="#ffffff" preserveAspectRatio="xMidYMid meet" height="1685" width="1000" xmlns="http://www.w3.org/2000/svg" xmlns:xlink="http://www.w3.org/1999/xlink"><g id="tight-bounds" transform="matrix(1,0,0,1,-0.02706444219316495,-0.10045467841399613)"><svg viewBox="0 0 194.05412888438633 327.2" height="327.2" width="194.05412888438633"><g><svg viewBox="0 0 395.52 666.8971422767429" height="327.2" width="194.05412888438633"><g transform="matrix(1,0,0,1,0,405.5363591736922)"><svg viewBox="0 0 395.52 261.3607831030507" height="261.3607831030507" width="395.52"><g id="textblocktransform"><svg viewBox="0 0 395.52 261.3607831030507" height="261.3607831030507" width="395.52" id="textblock"><g><svg viewBox="0 0 395.52 261.3607831030507" height="261.3607831030507" width="395.52"><g transform="matrix(1,0,0,1,0,0)"><svg width="395.52" viewBox="24.51375961303711 -29.288339614868164 44.7366828918457 29.562129974365234" height="261.3607831030507" data-palette-color="#a437db"><path d="M46.049-17.117l0.763 10.453c-0.27 0.334-0.705 0.686-1.306 1.058-0.608 0.372-1.311 0.721-2.11 1.046-0.798 0.326-1.617 0.606-2.455 0.841-0.832 0.228-1.631 0.37-2.396 0.425v0c-2.015 0.147-3.851-0.016-5.51-0.49-1.653-0.481-3.09-1.212-4.311-2.192-1.221-0.98-2.187-2.173-2.898-3.579-0.711-1.412-1.13-2.982-1.256-4.711v0c-0.165-2.261 0.034-4.25 0.597-5.969 0.563-1.719 1.393-3.176 2.488-4.373 1.096-1.19 2.389-2.11 3.88-2.759 1.497-0.651 3.086-1.037 4.768-1.16v0c1.589-0.116 3.055-0.049 4.396 0.2 1.349 0.256 2.501 0.606 3.456 1.051v0l-1.245 4.653c-0.422-0.196-0.977-0.383-1.665-0.56-0.688-0.17-1.382-0.304-2.085-0.399-0.709-0.095-1.329-0.124-1.861-0.085v0c-1.35 0.099-2.524 0.351-3.524 0.758-1.006 0.414-1.837 0.983-2.492 1.706-0.662 0.723-1.133 1.597-1.413 2.62-0.286 1.024-0.381 2.194-0.286 3.51v0c0.085 1.17 0.361 2.203 0.828 3.098 0.474 0.901 1.096 1.651 1.869 2.25 0.779 0.598 1.679 1.027 2.701 1.287 1.022 0.266 2.135 0.356 3.338 0.268v0c0.698-0.051 1.333-0.151 1.903-0.3 0.578-0.142 1.062-0.338 1.451-0.587v0l-0.218-2.992-4.269 0.312-0.343-4.708zM44.57-3.065l-4.659-0.758 4.14-25.465 0.03 0.004 10.466 21.498-1.986-0.809 16.62-16.608 0.069 0.011-4.139 25.466-4.817-0.783 2.373-14.599-0.11 2.546-10.194 10.419-0.059-0.01-6.605-13.15 1.211-2.153z" opacity="1" transform="matrix(1,0,0,1,0,0)" fill="#a437db" class="undefined-text-0" data-fill-palette-color="primary" id="text-0"></path></svg></g></svg></g></svg></g></svg></g><g transform="matrix(1,0,0,1,75.54432,0)"><svg viewBox="0 0 244.43135999999998 281.74676056960425" height="281.74676056960425" width="244.43135999999998"><g><svg xmlns="http://www.w3.org/2000/svg" xmlns:xlink="http://www.w3.org/1999/xlink" version="1.1" x="0" y="0" viewBox="7.800002574920654 0.6930935382843018 84.96263885498047 97.93321228027344" enable-background="new 0 0 100 100" xml:space="preserve" height="281.74676056960425" width="244.43135999999998" class="icon-icon-0" data-fill-palette-color="accent" id="icon-0"><path d="M64.2 65.4c0-1.9-0.3-2.3-2.1-3.2-1.7 1.7-3.8 4-6.7 5.6-0.7 0.4-2.5 1.2-3.4 1.6 1.9 0.8 3.9 1.8 5.7 2.8C61.3 70.1 64.2 67.8 64.2 65.4z" fill="#bb84e8" data-fill-palette-color="accent"></path><path d="M63.4 84c-3.6 2.8-7 4.3-11.2 6.1 3.8 2.2 8.7 5.6 11.4 8.2 0.7 0.7 1.9 0.2 1.9-0.8v-1.7-9c0-0.7-0.2-1.1-0.5-1.4C64.5 85 63.9 84.5 63.4 84z" fill="#bb84e8" data-fill-palette-color="accent"></path><path d="M35.1 79.8c0 0.3 0 0.5 0.1 0.8 0.2 0.3 0.4 0.5 0.6 0.8 0.4 0.3 0.8 0.7 1.2 1 2.9-1.9 6.6-3.7 10.1-5.3l1.8-0.8c0.6-0.2 1.1-0.5 1.8-0.8-2.1-0.9-4.4-1.9-6.7-3C39.3 74.6 35.1 77.1 35.1 79.8z" fill="#bb84e8" data-fill-palette-color="accent"></path><path d="M49.5 77.7l-1.8 0.8c-7.2 3.1-13.1 6.8-14.4 8.9-0.2 0.3-0.2 0.8-0.2 1.1v9.3c0 0.3 0.2 0.6 0.4 0.7 0.1 0.1 0.5 0.2 0.8-0.1 4.3-3.4 13.4-7.9 17.3-9.6 4.7-2 8.3-3.8 12.4-7.2 1.5-1.2 1.9-3.9 1.9-4.8v-8.4c0-0.9-0.1-1.7-0.3-2.5C65.1 71 56.1 74.8 49.5 77.7z" fill="#bb84e8" data-fill-palette-color="accent"></path><path d="M92.1 32.5c0.4-0.5 0.5-1.2 0.4-1.8l0-0.1c-0.3-1.2-1.4-2-2.6-1.7-0.1 0-0.1 0-0.2 0.1 0 0 0 0 0-0.1 0.1 0 0.1 0 0.2-0.1 1.1-0.6 1.4-2 0.8-3.1 0 0 0 0 0 0-0.6-1.1-2-1.4-3.1-0.8-0.1 0-0.1 0.1-0.2 0.1 0 0 0 0 0 0 0 0 0.1-0.1 0.1-0.1 0.8-0.9 0.8-2.3-0.2-3.2 0 0-0.1-0.1-0.1-0.1-0.9-0.8-2.3-0.7-3.1 0.3 0 0-0.1 0.1-0.1 0.2 0 0-0.1 0-0.1-0.1 0-0.1 0.1-0.1 0.1-0.1 0.5-1.1 0-2.5-1.2-2.9l-0.2-0.1c-1.1-0.5-2.4 0.1-2.9 1.2 0 0.1 0 0.1 0 0.2 0 0 0 0-0.1 0 0-0.1 0-0.1 0-0.2 0.1-1.2-0.8-2.3-2-2.4 0 0-0.2 0-0.2 0-1.2-0.1-2.2 0.8-2.3 2.1 0 0.1 0 0.1 0 0.2 0 0-0.1 0-0.1 0 0-0.1 0-0.1 0-0.2-0.3-1.2-1.5-1.9-2.7-1.6l-0.1 0C72 18 71.9 18 71.8 18c0.2-0.5 0.3-1.1 0.1-1.7l0-0.1c-0.4-1.2-1.7-1.8-2.8-1.4 0 0-0.1 0-0.1 0 0 0 0.1 0 0.1-0.1 1-0.7 1.4-2 0.7-3.1l-0.1-0.1c-0.7-1.1-2-1.4-3.1-0.7 0 0-0.1 0-0.1 0.1 0 0 0 0 0.1-0.1 0.9-0.9 0.9-2.3 0-3.2l-0.1-0.1c-0.9-0.9-2.2-0.8-3.1 0 0 0 0 0.1-0.1 0.1 0 0 0 0-0.1 0 0 0 0 0 0.1-0.1 0.7-1 0.4-2.4-0.6-3.1l-0.2-0.1c-1-0.7-2.4-0.3-3.1 0.7 0 0 0 0.1-0.1 0.1 0 0 0 0-0.1 0 0-0.1 0.1-0.1 0.1-0.1 0.4-1.2-0.2-2.4-1.3-2.9l-0.1 0c-1.2-0.4-2.4 0.2-2.9 1.3 0 0 0 0.1 0 0.1 0 0 0-0.1 0-0.1 0.2-1.2-0.7-2.4-1.9-2.5l-0.1 0c-1.2-0.2-2.4 0.7-2.5 1.9 0 0 0 0.1 0 0.1 0 0 0 0 0-0.1-0.1-1.2-1.1-2.2-2.4-2.1 0 0-0.2 0-0.2 0-1.2 0.1-2.1 1.2-2 2.4 0 0 0 0.1 0 0.1 0 0-0.1 0-0.1 0 0 0 0-0.1 0-0.1-0.3-1.2-1.6-1.9-2.8-1.5 0 0-0.2 0.1-0.2 0.1-1.2 0.4-1.7 1.6-1.4 2.8 0 0 0 0.1 0.1 0.1 0 0-0.1 0-0.1 0 0 0 0-0.1-0.1-0.1-0.6-1.1-2-1.4-3.1-0.8l-0.1 0.1c-1.1 0.6-1.4 2-0.8 3.1 0 0 0 0.1 0.1 0.1 0 0 0 0-0.1-0.1-0.8-0.9-2.3-1-3.2-0.1 0 0-0.1 0.1-0.1 0.1C33.2 7.8 33.2 9.1 34 10c0 0 0.1 0.1 0.1 0.1 0 0 0 0-0.1 0.1 0 0-0.1-0.1-0.1-0.1-1-0.7-2.4-0.4-3.1 0.6l-0.1 0.1c-0.7 1-0.5 2.4 0.6 3.1 0 0 0.1 0 0.1 0.1 0 0-0.1 0-0.1 0-1.1-0.5-2.5 0.1-2.9 1.2l-0.1 0.2c-0.5 1.2 0.1 2.4 1.3 2.8 0 0 0.1 0 0.1 0 0 0 0 0 0 0-1.2-0.4-2.4 0.3-2.8 1.4 0 0 0 0 0 0.1 0 0 0 0 0 0 0-1.2-1.1-2.2-2.3-2.2h0c-1.2 0-2.2 1-2.2 2.2 0 0 0 0.1 0 0.1 0 0 0-0.1 0-0.1-0.4-1.2-1.6-1.8-2.8-1.5 0 0-0.2 0-0.2 0.1-1.2 0.4-1.7 1.6-1.4 2.8 0 0 0 0.1 0 0.1 0 0 0-0.1-0.1-0.1-0.7-1-2.1-1.2-3.1-0.5 0 0-0.1 0.1-0.2 0.1-1 0.7-1.1 2.1-0.4 3.1 0 0 0.1 0.1 0.1 0.1 0 0-0.1-0.1-0.1-0.1-1-0.7-2.4-0.5-3.1 0.5 0 0-0.1 0.1-0.1 0.1-0.7 1-0.5 2.3 0.5 3.1 0 0 0.1 0.1 0.1 0.1-0.1 0-0.1 0-0.2-0.1-1.2-0.4-2.4 0.3-2.8 1.4l0 0.1c-0.4 1.1 0.2 2.4 1.3 2.8-1.2 0.1-2.1 1-2.1 2.2l0 0.1c0 0 0 0 0 0.1 0 1.2 0.9 2.2 2 2.3-1 0.5-1.6 1.6-1.2 2.7 0 0 0 0.2 0.1 0.2 0.4 1.2 1.6 1.7 2.8 1.4 0 0 0.1 0 0.1 0 0 0-0.1 0-0.1 0.1-1 0.7-1.2 2.1-0.5 3.1 0 0 0.1 0.1 0.1 0.2 0.7 1 2.1 1.1 3.1 0.4 0 0 0.1-0.1 0.1-0.1 0 0.1-0.1 0.1-0.1 0.2-0.7 1-0.5 2.4 0.5 3.1l0.1 0.1c1 0.7 2.4 0.5 3.1-0.5 0 0 0 0 0 0 0 0 0 0 0 0-0.4 1.2 0.3 2.4 1.5 2.8 0 0 0.1 0 0.1 0 1.2 0.4 2.4-0.3 2.8-1.5 0 0 0-0.1 0-0.1 0 0 0 0.1 0 0.1 0 1.2 1.1 2.2 2.3 2.2h0c1.1 0 1.9-0.7 2.1-1.7 0 0 7.1 6.7 10.1 9.5 1.5-1 3.8-2.1 6.3-3.2v-1.9L35.7 45c0.9 0.2 1.8-0.1 2.4-0.8l0.1-0.1c0.3-0.4 0.4-0.8 0.4-1.2-0.1 0.9 0.4 1.9 1.3 2.3l0.2 0.1c0.3 0.1 0.6 0.2 0.9 0.2 0.9 0 1.7-0.5 2-1.4 0 0 0-0.1 0-0.1-0.2 1.1 0.8 2.4 1.9 2.7l0 8.8 0 0v1.3c0 0-4.7 1.8-7.5 3.6-0.4 0.3-0.7 0.5-1 0.8-0.3 0.2-0.6 0.5-0.9 0.8-1.6 1.3-2 3-2 3.7v9.8c0 0.8 0.2 1.6 0.5 2.4C35.3 73.3 44 70 50.5 67.5c1.2-0.5 2.5-1.1 3.5-1.6 1.2-0.5 3.1-1.9 3.7-2.3C58.5 63 70 52.3 73.4 49.1c0.2 1 1 1.7 2.1 1.8 0 0 0.2 0 0.2 0 0 0 0 0 0.1 0 1.2 0 2.1-0.9 2.2-2.1 0-0.1 0-0.1 0-0.2 0 0 0.1 0 0.1 0 0 0.1 0 0.2 0 0.2 0.3 1 1.2 1.6 2.1 1.6 0.2 0 0.4 0 0.7-0.1l0.1 0c1.2-0.4 1.9-1.6 1.5-2.8 0-0.1 0-0.1-0.1-0.2 0 0 0 0 0 0 0 0.1 0.1 0.1 0.1 0.2 0.4 0.6 1.1 0.9 1.8 0.9 0.5 0 0.9-0.1 1.3-0.4 0 0 0.1-0.1 0.1-0.1 1-0.7 1.2-2.1 0.5-3.1 0 0-0.1-0.1-0.1-0.1 0 0 0 0 0 0 0 0 0.1 0.1 0.1 0.1 0.4 0.3 0.9 0.4 1.3 0.4 0.7 0 1.4-0.3 1.8-0.9 0 0 0.1-0.1 0.1-0.1 0.7-1 0.5-2.3-0.5-3.1 0 0-0.1 0-0.1-0.1 0 0 0-0.1 0-0.1 0.1 0 0.2 0.1 0.2 0.1 0.2 0.1 0.4 0.1 0.7 0.1 1 0 1.8-0.6 2.1-1.6l0-0.1c0.4-1.2-0.2-2.4-1.4-2.8 0 0-0.1 0-0.1 0 0 0 0.1 0 0.1 0 1.3 0.1 2.3-0.9 2.3-2.2l0-0.2C92.9 33.5 92.6 32.9 92.1 32.5zM55.3 54.2v-7.7c0.1 0 0.2 0 0.3 0l0.1 0c1.2-0.3 1.9-1.5 1.6-2.7 0 0 0-0.1 0-0.1 0 0 0 0 0 0.1 0.5 1.1 1.9 1.6 3 1 0 0 0.2-0.1 0.2-0.1 0.8-0.4 1.3-1.3 1.3-2.2 0.1 0.3 0.2 0.6 0.3 0.8l0.1 0.1c0.5 0.8 1.5 1.1 2.4 0.9L55.3 54.2zM70.6 19.2C70.6 19.2 70.6 19.2 70.6 19.2c-0.1 0-0.1 0-0.2 0C70.5 19.2 70.5 19.2 70.6 19.2 70.6 19.2 70.6 19.1 70.6 19.2 70.7 19.2 70.6 19.2 70.6 19.2z" fill="#bb84e8" data-fill-palette-color="accent"></path></svg></g></svg></g><g></g></svg></g><defs></defs></svg><rect width="194.05412888438633" height="327.2" fill="none" stroke="none" visibility="hidden"></rect></g></svg></g></svg>